<?xml version="1.0" encoding="iso-8859-1"?>
<!-- Generator: Adobe Illustrator 18.0.0, SVG Export Plug-In . SVG Version: 6.00 Build 0)  -->
<!DOCTYPE svg PUBLIC "-//W3C//DTD SVG 1.1//EN" "http://www.w3.org/Graphics/SVG/1.1/DTD/svg11.dtd">
<svg version="1.1" id="&#x56FE;&#x5C42;_1" xmlns="http://www.w3.org/2000/svg" xmlns:xlink="http://www.w3.org/1999/xlink" x="0px"
	 y="0px" viewBox="0 0 100 100" style="enable-background:new 0 0 100 100;" xml:space="preserve">
<g>
	<g>
		<defs>
			<rect id="SVGID_1_" x="1.008" y="2.5" width="97.983" height="95"/>
		</defs>
		<clipPath id="SVGID_2_">
			<use xlink:href="#SVGID_1_"  style="overflow:visible;"/>
		</clipPath>
		<path style="clip-path:url(#SVGID_2_);fill:#707070;" d="M90.946,19.672c-1.224-9.485-9.485-17.134-19.581-17.134H28.53
			c-10.096,0-18.357,7.649-19.581,17.134c-4.589,1.53-7.955,5.507-7.955,10.402v48.954c0,5.813,4.895,10.709,10.709,10.709h1.224
			c3.671,4.589,9.485,7.649,15.604,7.649h42.834c6.119,0,11.932-3.06,15.604-7.649h1.224c5.813,0,10.708-4.895,10.708-10.709V30.074
			C98.901,25.179,95.535,21.202,90.946,19.672L90.946,19.672z M28.53,5.598h42.834c8.261,0,14.992,5.813,16.521,13.768
			c-5.813,0.306-10.402,4.895-10.402,10.708v48.954H22.411V30.074c0-5.813-4.589-10.402-10.402-10.708
			C13.539,11.411,20.27,5.598,28.53,5.598L28.53,5.598z M4.054,79.028V30.074c0-4.283,3.366-7.649,7.649-7.649
			c4.283,0,7.649,3.366,7.649,7.649v48.954c0,4.283-3.366,7.649-7.649,7.649C7.419,86.677,4.054,83.311,4.054,79.028L4.054,79.028z
			 M71.365,94.326H28.53c-4.895,0-9.178-2.142-12.544-5.507c2.753-1.224,4.895-3.672,5.813-6.731h55.99
			c0.918,3.059,3.06,5.507,5.813,6.731C80.543,92.184,76.26,94.326,71.365,94.326L71.365,94.326z M95.841,79.028
			c0,4.283-3.366,7.649-7.649,7.649c-4.283,0-7.649-3.366-7.649-7.649V30.074c0-4.283,3.366-7.649,7.649-7.649
			c4.283,0,7.649,3.366,7.649,7.649V79.028z M95.841,79.028"/>
	</g>
</g>
</svg>
