<?xml version="1.0" encoding="iso-8859-1"?>
<!-- Generator: Adobe Illustrator 18.0.0, SVG Export Plug-In . SVG Version: 6.00 Build 0)  -->
<!DOCTYPE svg PUBLIC "-//W3C//DTD SVG 1.1//EN" "http://www.w3.org/Graphics/SVG/1.1/DTD/svg11.dtd">
<svg version="1.1" id="&#x56FE;&#x5C42;_1" xmlns="http://www.w3.org/2000/svg" xmlns:xlink="http://www.w3.org/1999/xlink" x="0px"
	 y="0px" viewBox="0 0 100 100" style="enable-background:new 0 0 100 100;" xml:space="preserve">
<path style="fill:#DADADA;stroke:#DADADA;stroke-miterlimit:10;" d="M98.73,30.095v48.921c0,5.811-4.89,10.702-10.702,10.702h-1.224
	c-3.666,4.587-9.478,7.642-15.592,7.642H28.405c-6.114,0-11.926-3.054-15.592-7.642h-1.224c-5.631,0-10.393-4.587-10.69-10.16V29.64
	c0.198-4.686,3.497-8.463,7.939-9.944c1.224-9.478,9.478-17.119,19.567-17.119h42.807c10.09,0,18.343,7.642,19.567,17.119
	C95.367,21.223,98.73,25.199,98.73,30.095z"/>
<g>
	<g>
		<defs>
			<rect id="SVGID_1_" x="0.854" y="2.271" width="98.107" height="95.459"/>
		</defs>
		<clipPath id="SVGID_2_">
			<use xlink:href="#SVGID_1_"  style="overflow:visible;"/>
		</clipPath>
		<path style="clip-path:url(#SVGID_2_);fill:#707070;" d="M90.905,19.525c-1.226-9.53-9.497-17.216-19.606-17.216H28.41
			c-10.109,0-18.38,7.686-19.606,17.216c-4.595,1.537-7.965,5.534-7.965,10.453v49.19c0,5.841,4.902,10.761,10.722,10.761h1.225
			c3.676,4.611,9.497,7.686,15.623,7.686h42.889c6.127,0,11.947-3.075,15.623-7.686h1.226c5.82,0,10.722-4.919,10.722-10.761v-49.19
			C98.869,25.059,95.5,21.063,90.905,19.525L90.905,19.525z M28.41,5.384h42.889c8.271,0,15.011,5.841,16.542,13.835
			c-5.821,0.307-10.416,4.919-10.416,10.76v49.19H22.283v-49.19c0-5.841-4.595-10.453-10.416-10.76
			C13.4,11.224,20.139,5.384,28.41,5.384L28.41,5.384z M3.903,79.168v-49.19c0-4.304,3.37-7.686,7.659-7.686
			c4.289,0,7.659,3.382,7.659,7.686v49.19c0,4.304-3.37,7.686-7.659,7.686C7.273,86.854,3.903,83.472,3.903,79.168L3.903,79.168z
			 M71.299,94.54H28.41c-4.901,0-9.19-2.152-12.56-5.534c2.757-1.23,4.901-3.69,5.82-6.764h56.061
			c0.919,3.074,3.064,5.534,5.821,6.764C80.489,92.388,76.2,94.54,71.299,94.54L71.299,94.54z M95.806,79.168
			c0,4.304-3.37,7.686-7.659,7.686c-4.289,0-7.659-3.382-7.659-7.686v-49.19c0-4.304,3.37-7.686,7.659-7.686
			c4.289,0,7.659,3.382,7.659,7.686V79.168z M95.806,79.168"/>
	</g>
</g>
</svg>
