<?xml version="1.0" encoding="iso-8859-1"?>
<!-- Generator: Adobe Illustrator 18.0.0, SVG Export Plug-In . SVG Version: 6.00 Build 0)  -->
<!DOCTYPE svg PUBLIC "-//W3C//DTD SVG 1.1//EN" "http://www.w3.org/Graphics/SVG/1.1/DTD/svg11.dtd">
<svg version="1.1" id="&#x56FE;&#x5C42;_1" xmlns="http://www.w3.org/2000/svg" xmlns:xlink="http://www.w3.org/1999/xlink" x="0px"
	 y="0px" viewBox="0 0 100 100" style="enable-background:new 0 0 100 100;" xml:space="preserve">
<path style="fill:#F09494;" d="M100.1,29.953v49.348c0,5.862-4.933,10.795-10.795,10.795H88.07
	c-3.698,4.627-9.56,7.708-15.728,7.708H29.161c-6.168,0-12.03-3.081-15.728-7.708h-1.235c-5.68,0-10.484-4.627-10.783-10.248V29.495
	c0.2-4.727,3.528-8.537,8.008-10.031c1.235-9.56,9.56-17.269,19.738-17.269h43.181c10.178,0,18.503,7.708,19.738,17.269
	C96.707,21.004,100.1,25.014,100.1,29.953z"/>
<path style="fill:#FFFFFF;" d="M82.519,37.438l-5.346-5.345L46.705,62.561L28.601,44.456l-5.348,5.349L46.701,73.25l5.123-5.127
	l0.007,0.006L82.519,37.438z M82.519,37.438"/>
<rect x="21.129" y="55.131" transform="matrix(0.7071 0.7071 -0.7071 0.7071 52.7829 -9.4141)" style="fill:#FFFFFF;" width="33.253" height="7.754"/>
<rect x="36.58" y="48.902" transform="matrix(0.7071 -0.7071 0.7071 0.7071 -19.1569 59.3097)" style="fill:#FFFFFF;" width="50.869" height="7.754"/>
</svg>
